<svg width="180" height="21" viewBox="0 0 180 21" fill="none" xmlns="http://www.w3.org/2000/svg">
<rect width="34" height="12" rx="2" transform="matrix(1 0 0 -1 146 20)" fill="#6CCFF6"/>
<path d="M20.0365 8.37652C20.267 8.017 20.585 7.72662 20.9907 7.50537C21.3963 7.28413 21.871 7.17351 22.4149 7.17351C23.051 7.17351 23.6271 7.33483 24.1434 7.65748C24.6596 7.98012 25.0652 8.44105 25.3602 9.04025C25.6644 9.63944 25.8165 10.3354 25.8165 11.1282C25.8165 11.921 25.6644 12.6216 25.3602 13.23C25.0652 13.8292 24.6596 14.2948 24.1434 14.6266C23.6271 14.9493 23.051 15.1106 22.4149 15.1106C21.8802 15.1106 21.4055 15 20.9907 14.7787C20.585 14.5575 20.267 14.2717 20.0365 13.9214V18.6781H17.672V7.28413H20.0365V8.37652ZM23.4105 11.1282C23.4105 10.5382 23.2446 10.0773 22.9127 9.74546C22.5901 9.40437 22.1891 9.23383 21.7097 9.23383C21.2396 9.23383 20.8385 9.40437 20.5067 9.74546C20.184 10.0865 20.0227 10.5521 20.0227 11.1421C20.0227 11.732 20.184 12.1976 20.5067 12.5386C20.8385 12.8797 21.2396 13.0503 21.7097 13.0503C22.1798 13.0503 22.5808 12.8797 22.9127 12.5386C23.2446 12.1883 23.4105 11.7182 23.4105 11.1282ZM34.6069 11.0176C34.6069 11.2388 34.5931 11.4693 34.5654 11.709H29.2141C29.251 12.1883 29.4031 12.5571 29.6704 12.8152C29.947 13.0641 30.2835 13.1885 30.6798 13.1885C31.2698 13.1885 31.68 12.9396 31.9105 12.4419H34.4271C34.2981 12.9489 34.063 13.4052 33.7219 13.8108C33.3901 14.2164 32.9706 14.5344 32.4636 14.7649C31.9566 14.9954 31.3897 15.1106 30.7628 15.1106C30.0069 15.1106 29.334 14.9493 28.744 14.6266C28.154 14.304 27.6931 13.8431 27.3612 13.2439C27.0293 12.6447 26.8634 11.9441 26.8634 11.1421C26.8634 10.34 27.0247 9.63944 27.3474 9.04025C27.6792 8.44105 28.1402 7.98012 28.7301 7.65748C29.3201 7.33483 29.9977 7.17351 30.7628 7.17351C31.5095 7.17351 32.1732 7.33022 32.754 7.64365C33.3348 7.95708 33.7865 8.40417 34.1091 8.98493C34.441 9.5657 34.6069 10.2433 34.6069 11.0176ZM32.1871 10.3954C32.1871 9.98975 32.0488 9.6671 31.7722 9.42742C31.4957 9.18774 31.15 9.0679 30.7352 9.0679C30.3388 9.0679 30.0023 9.18313 29.7257 9.41359C29.4584 9.64405 29.2925 9.97131 29.2279 10.3954H32.1871ZM39.2697 15.1106C38.5968 15.1106 37.9976 14.9954 37.4721 14.7649C36.9467 14.5344 36.5319 14.221 36.2277 13.8246C35.9235 13.419 35.7529 12.9673 35.716 12.4695H38.0529C38.0806 12.7368 38.205 12.9535 38.4263 13.1194C38.6475 13.2853 38.9194 13.3683 39.2421 13.3683C39.5371 13.3683 39.7629 13.313 39.9196 13.2024C40.0856 13.0825 40.1685 12.9304 40.1685 12.7461C40.1685 12.5248 40.0533 12.3635 39.8229 12.2621C39.5924 12.1515 39.219 12.0316 38.7028 11.9026C38.1497 11.7735 37.6888 11.6398 37.32 11.5016C36.9513 11.3541 36.6333 11.1282 36.3659 10.824C36.0986 10.5106 35.9649 10.0911 35.9649 9.5657C35.9649 9.12321 36.0848 8.72221 36.3245 8.36269C36.5734 7.99395 36.9329 7.70357 37.403 7.49155C37.8824 7.27952 38.4493 7.17351 39.1038 7.17351C40.0718 7.17351 40.8323 7.41319 41.3854 7.89255C41.9477 8.37191 42.2703 9.00798 42.3533 9.80077H40.1685C40.1317 9.53343 40.0118 9.32141 39.809 9.16469C39.6154 9.00798 39.3573 8.92962 39.0347 8.92962C38.7581 8.92962 38.5461 8.98493 38.3986 9.09556C38.2511 9.19696 38.1774 9.33984 38.1774 9.52421C38.1774 9.74546 38.2926 9.91139 38.5231 10.022C38.7627 10.1326 39.1315 10.2433 39.6293 10.3539C40.2008 10.5014 40.6663 10.6489 41.0259 10.7964C41.3854 10.9346 41.6988 11.1651 41.9661 11.4877C42.2427 11.8012 42.3856 12.2252 42.3948 12.7599C42.3948 13.2116 42.2657 13.6172 42.0076 13.9767C41.7587 14.327 41.3946 14.6036 40.9152 14.8064C40.4451 15.0092 39.8966 15.1106 39.2697 15.1106ZM47.6302 15.1106C46.8743 15.1106 46.1921 14.9493 45.5837 14.6266C44.9845 14.304 44.5097 13.8431 44.1594 13.2439C43.8184 12.6447 43.6478 11.9441 43.6478 11.1421C43.6478 10.3493 43.823 9.65327 44.1733 9.05407C44.5236 8.44566 45.0029 7.98012 45.6113 7.65748C46.2198 7.33483 46.9019 7.17351 47.6578 7.17351C48.4138 7.17351 49.0959 7.33483 49.7043 7.65748C50.3128 7.98012 50.7921 8.44566 51.1424 9.05407C51.4927 9.65327 51.6679 10.3493 51.6679 11.1421C51.6679 11.9348 51.4881 12.6354 51.1286 13.2439C50.7783 13.8431 50.2943 14.304 49.6767 14.6266C49.0683 14.9493 48.3861 15.1106 47.6302 15.1106ZM47.6302 13.0641C48.0819 13.0641 48.4645 12.8982 48.7779 12.5663C49.1005 12.2344 49.2619 11.7597 49.2619 11.1421C49.2619 10.5244 49.1051 10.0497 48.7917 9.7178C48.4875 9.38594 48.1095 9.22001 47.6578 9.22001C47.1969 9.22001 46.8144 9.38594 46.5101 9.7178C46.2059 10.0404 46.0538 10.5152 46.0538 11.1421C46.0538 11.7597 46.2013 12.2344 46.4963 12.5663C46.8005 12.8982 47.1785 13.0641 47.6302 13.0641ZM56.3377 15.1106C55.6648 15.1106 55.0656 14.9954 54.5401 14.7649C54.0147 14.5344 53.5999 14.221 53.2956 13.8246C52.9914 13.419 52.8209 12.9673 52.784 12.4695H55.1209C55.1485 12.7368 55.273 12.9535 55.4942 13.1194C55.7155 13.2853 55.9874 13.3683 56.3101 13.3683C56.6051 13.3683 56.8309 13.313 56.9876 13.2024C57.1536 13.0825 57.2365 12.9304 57.2365 12.7461C57.2365 12.5248 57.1213 12.3635 56.8908 12.2621C56.6604 12.1515 56.287 12.0316 55.7708 11.9026C55.2177 11.7735 54.7568 11.6398 54.388 11.5016C54.0193 11.3541 53.7013 11.1282 53.4339 10.824C53.1666 10.5106 53.0329 10.0911 53.0329 9.5657C53.0329 9.12321 53.1528 8.72221 53.3924 8.36269C53.6413 7.99395 54.0009 7.70357 54.471 7.49155C54.9504 7.27952 55.5173 7.17351 56.1718 7.17351C57.1397 7.17351 57.9003 7.41319 58.4534 7.89255C59.0157 8.37191 59.3383 9.00798 59.4213 9.80077H57.2365C57.1997 9.53343 57.0798 9.32141 56.877 9.16469C56.6834 9.00798 56.4253 8.92962 56.1027 8.92962C55.8261 8.92962 55.6141 8.98493 55.4666 9.09556C55.3191 9.19696 55.2453 9.33984 55.2453 9.52421C55.2453 9.74546 55.3606 9.91139 55.591 10.022C55.8307 10.1326 56.1995 10.2433 56.6972 10.3539C57.2688 10.5014 57.7343 10.6489 58.0938 10.7964C58.4534 10.9346 58.7668 11.1651 59.0341 11.4877C59.3107 11.8012 59.4536 12.2252 59.4628 12.7599C59.4628 13.2116 59.3337 13.6172 59.0756 13.9767C58.8267 14.327 58.4626 14.6036 57.9832 14.8064C57.5131 15.0092 56.9646 15.1106 56.3377 15.1106ZM63.9226 11.1282C63.9226 10.3354 64.0701 9.63944 64.3651 9.04025C64.6693 8.44105 65.0796 7.98012 65.5958 7.65748C66.112 7.33483 66.6882 7.17351 67.3242 7.17351C67.8681 7.17351 68.3429 7.28413 68.7485 7.50537C69.1633 7.72662 69.4814 8.017 69.7026 8.37652V7.28413H72.0671V15H69.7026V13.9076C69.4721 14.2671 69.1495 14.5575 68.7347 14.7787C68.3291 15 67.8543 15.1106 67.3104 15.1106C66.6836 15.1106 66.112 14.9493 65.5958 14.6266C65.0796 14.2948 64.6693 13.8292 64.3651 13.23C64.0701 12.6216 63.9226 11.921 63.9226 11.1282ZM69.7026 11.1421C69.7026 10.5521 69.5367 10.0865 69.2048 9.74546C68.8822 9.40437 68.4858 9.23383 68.0156 9.23383C67.5455 9.23383 67.1445 9.40437 66.8126 9.74546C66.49 10.0773 66.3286 10.5382 66.3286 11.1282C66.3286 11.7182 66.49 12.1883 66.8126 12.5386C67.1445 12.8797 67.5455 13.0503 68.0156 13.0503C68.4858 13.0503 68.8822 12.8797 69.2048 12.5386C69.5367 12.1976 69.7026 11.732 69.7026 11.1421ZM76.4188 8.5701C76.6954 8.14606 77.0411 7.81419 77.4559 7.57451C77.8708 7.32562 78.3317 7.20117 78.8387 7.20117V9.70397H78.1888C77.5988 9.70397 77.1563 9.83303 76.8613 10.0911C76.5663 10.34 76.4188 10.7825 76.4188 11.4186V15H74.0543V7.28413H76.4188V8.5701ZM83.1769 7.17351C83.7208 7.17351 84.1955 7.28413 84.6012 7.50537C85.016 7.72662 85.334 8.017 85.5553 8.37652V7.28413H87.9198V14.9861C87.9198 15.696 87.7769 16.3366 87.4911 16.9082C87.2146 17.4889 86.7859 17.9499 86.2052 18.291C85.6336 18.632 84.9192 18.8026 84.0619 18.8026C82.9188 18.8026 81.9923 18.5306 81.2825 17.9867C80.5727 17.4521 80.1671 16.7238 80.0657 15.802H82.4026C82.4763 16.097 82.6515 16.3274 82.928 16.4934C83.2046 16.6685 83.5456 16.7561 83.9513 16.7561C84.4398 16.7561 84.827 16.6132 85.1128 16.3274C85.4078 16.0509 85.5553 15.6038 85.5553 14.9861V13.8938C85.3248 14.2533 85.0068 14.5483 84.6012 14.7787C84.1955 15 83.7208 15.1106 83.1769 15.1106C82.5408 15.1106 81.9647 14.9493 81.4484 14.6266C80.9322 14.2948 80.522 13.8292 80.2178 13.23C79.9228 12.6216 79.7753 11.921 79.7753 11.1282C79.7753 10.3354 79.9228 9.63944 80.2178 9.04025C80.522 8.44105 80.9322 7.98012 81.4484 7.65748C81.9647 7.33483 82.5408 7.17351 83.1769 7.17351ZM85.5553 11.1421C85.5553 10.5521 85.3893 10.0865 85.0575 9.74546C84.7348 9.40437 84.3384 9.23383 83.8683 9.23383C83.3981 9.23383 82.9971 9.40437 82.6653 9.74546C82.3426 10.0773 82.1813 10.5382 82.1813 11.1282C82.1813 11.7182 82.3426 12.1883 82.6653 12.5386C82.9971 12.8797 83.3981 13.0503 83.8683 13.0503C84.3384 13.0503 84.7348 12.8797 85.0575 12.5386C85.3893 12.1976 85.5553 11.732 85.5553 11.1421ZM97.1803 11.0176C97.1803 11.2388 97.1665 11.4693 97.1389 11.709H91.7875C91.8244 12.1883 91.9765 12.5571 92.2439 12.8152C92.5204 13.0641 92.8569 13.1885 93.2533 13.1885C93.8433 13.1885 94.2535 12.9396 94.4839 12.4419H97.0006C96.8715 12.9489 96.6364 13.4052 96.2954 13.8108C95.9635 14.2164 95.5441 14.5344 95.037 14.7649C94.53 14.9954 93.9631 15.1106 93.3362 15.1106C92.5803 15.1106 91.9074 14.9493 91.3174 14.6266C90.7274 14.304 90.2665 13.8431 89.9346 13.2439C89.6028 12.6447 89.4368 11.9441 89.4368 11.1421C89.4368 10.34 89.5982 9.63944 89.9208 9.04025C90.2527 8.44105 90.7136 7.98012 91.3036 7.65748C91.8936 7.33483 92.5711 7.17351 93.3362 7.17351C94.0829 7.17351 94.7467 7.33022 95.3274 7.64365C95.9082 7.95708 96.3599 8.40417 96.6825 8.98493C97.0144 9.5657 97.1803 10.2433 97.1803 11.0176ZM94.7605 10.3954C94.7605 9.98975 94.6222 9.6671 94.3457 9.42742C94.0691 9.18774 93.7234 9.0679 93.3086 9.0679C92.9122 9.0679 92.5757 9.18313 92.2992 9.41359C92.0318 9.64405 91.8659 9.97131 91.8014 10.3954H94.7605ZM103.406 7.20117C104.309 7.20117 105.028 7.49616 105.563 8.08614C106.107 8.6669 106.379 9.4689 106.379 10.4922V15H104.028V10.8102C104.028 10.294 103.894 9.89295 103.627 9.60718C103.36 9.32141 103 9.17852 102.548 9.17852C102.097 9.17852 101.737 9.32141 101.47 9.60718C101.202 9.89295 101.069 10.294 101.069 10.8102V15H98.7043V7.28413H101.069V8.30738C101.309 7.9663 101.631 7.69896 102.037 7.50537C102.442 7.30257 102.899 7.20117 103.406 7.20117ZM112.599 12.995V15H111.396C110.538 15 109.87 14.7926 109.391 14.3777C108.911 13.9537 108.672 13.2669 108.672 12.3174V9.24766H107.731V7.28413H108.672V5.40357H111.036V7.28413H112.585V9.24766H111.036V12.3451C111.036 12.5755 111.092 12.7415 111.202 12.8429C111.313 12.9443 111.497 12.995 111.755 12.995H112.599ZM115.382 6.48213C114.967 6.48213 114.626 6.36229 114.358 6.12261C114.1 5.87371 113.971 5.5695 113.971 5.20998C113.971 4.84124 114.1 4.53704 114.358 4.29736C114.626 4.04846 114.967 3.92401 115.382 3.92401C115.787 3.92401 116.119 4.04846 116.377 4.29736C116.644 4.53704 116.778 4.84124 116.778 5.20998C116.778 5.5695 116.644 5.87371 116.377 6.12261C116.119 6.36229 115.787 6.48213 115.382 6.48213ZM116.557 7.28413V15H114.192V7.28413H116.557ZM123.248 7.20117C124.152 7.20117 124.871 7.49616 125.406 8.08614C125.949 8.6669 126.221 9.4689 126.221 10.4922V15H123.871V10.8102C123.871 10.294 123.737 9.89295 123.47 9.60718C123.202 9.32141 122.843 9.17852 122.391 9.17852C121.939 9.17852 121.58 9.32141 121.313 9.60718C121.045 9.89295 120.912 10.294 120.912 10.8102V15H118.547V7.28413H120.912V8.30738C121.151 7.9663 121.474 7.69896 121.879 7.50537C122.285 7.30257 122.741 7.20117 123.248 7.20117ZM131.653 15.1106C130.897 15.1106 130.215 14.9493 129.607 14.6266C129.008 14.304 128.533 13.8431 128.182 13.2439C127.841 12.6447 127.671 11.9441 127.671 11.1421C127.671 10.3493 127.846 9.65327 128.196 9.05407C128.547 8.44566 129.026 7.98012 129.634 7.65748C130.243 7.33483 130.925 7.17351 131.681 7.17351C132.437 7.17351 133.119 7.33483 133.727 7.65748C134.336 7.98012 134.815 8.44566 135.165 9.05407C135.516 9.65327 135.691 10.3493 135.691 11.1421C135.691 11.9348 135.511 12.6354 135.152 13.2439C134.801 13.8431 134.317 14.304 133.7 14.6266C133.091 14.9493 132.409 15.1106 131.653 15.1106ZM131.653 13.0641C132.105 13.0641 132.488 12.8982 132.801 12.5663C133.124 12.2344 133.285 11.7597 133.285 11.1421C133.285 10.5244 133.128 10.0497 132.815 9.7178C132.511 9.38594 132.133 9.22001 131.681 9.22001C131.22 9.22001 130.837 9.38594 130.533 9.7178C130.229 10.0404 130.077 10.5152 130.077 11.1421C130.077 11.7597 130.224 12.2344 130.519 12.5663C130.824 12.8982 131.202 13.0641 131.653 13.0641ZM140.361 15.1106C139.688 15.1106 139.089 14.9954 138.563 14.7649C138.038 14.5344 137.623 14.221 137.319 13.8246C137.014 13.419 136.844 12.9673 136.807 12.4695H139.144C139.172 12.7368 139.296 12.9535 139.517 13.1194C139.739 13.2853 140.01 13.3683 140.333 13.3683C140.628 13.3683 140.854 13.313 141.011 13.2024C141.177 13.0825 141.26 12.9304 141.26 12.7461C141.26 12.5248 141.144 12.3635 140.914 12.2621C140.683 12.1515 140.31 12.0316 139.794 11.9026C139.241 11.7735 138.78 11.6398 138.411 11.5016C138.042 11.3541 137.724 11.1282 137.457 10.824C137.19 10.5106 137.056 10.0911 137.056 9.5657C137.056 9.12321 137.176 8.72221 137.415 8.36269C137.664 7.99395 138.024 7.70357 138.494 7.49155C138.973 7.27952 139.54 7.17351 140.195 7.17351C141.163 7.17351 141.923 7.41319 142.476 7.89255C143.039 8.37191 143.361 9.00798 143.444 9.80077H141.26C141.223 9.53343 141.103 9.32141 140.9 9.16469C140.706 9.00798 140.448 8.92962 140.126 8.92962C139.849 8.92962 139.637 8.98493 139.49 9.09556C139.342 9.19696 139.268 9.33984 139.268 9.52421C139.268 9.74546 139.384 9.91139 139.614 10.022C139.854 10.1326 140.223 10.2433 140.72 10.3539C141.292 10.5014 141.757 10.6489 142.117 10.7964C142.476 10.9346 142.79 11.1651 143.057 11.4877C143.334 11.8012 143.477 12.2252 143.486 12.7599C143.486 13.2116 143.357 13.6172 143.099 13.9767C142.85 14.327 142.486 14.6036 142.006 14.8064C141.536 15.0092 140.988 15.1106 140.361 15.1106ZM156.706 5.33443V15H155.738V10.4783H150.497V15H149.529V5.33443H150.497V9.67632H155.738V5.33443H156.706ZM162.495 15.1106C161.785 15.1106 161.145 14.9539 160.573 14.6405C160.011 14.3178 159.564 13.8661 159.232 13.2853C158.909 12.6954 158.748 12.0086 158.748 11.225C158.748 10.4414 158.914 9.75928 159.246 9.17852C159.578 8.58854 160.029 8.13684 160.601 7.82341C161.172 7.50077 161.813 7.33944 162.523 7.33944C163.233 7.33944 163.873 7.50077 164.445 7.82341C165.026 8.13684 165.477 8.58854 165.8 9.17852C166.132 9.75928 166.298 10.4414 166.298 11.225C166.298 11.9994 166.132 12.6815 165.8 13.2715C165.468 13.8615 165.012 14.3178 164.431 14.6405C163.85 14.9539 163.205 15.1106 162.495 15.1106ZM162.495 14.2671C162.993 14.2671 163.454 14.1565 163.878 13.9352C164.302 13.7048 164.643 13.3637 164.901 12.912C165.169 12.4511 165.302 11.8887 165.302 11.225C165.302 10.5613 165.173 10.0036 164.915 9.55187C164.657 9.09095 164.316 8.74986 163.892 8.52862C163.468 8.29816 163.007 8.18293 162.509 8.18293C162.011 8.18293 161.55 8.29816 161.126 8.52862C160.702 8.74986 160.361 9.09095 160.103 9.55187C159.854 10.0036 159.73 10.5613 159.73 11.225C159.73 11.8887 159.854 12.4511 160.103 12.912C160.361 13.3637 160.698 13.7048 161.113 13.9352C161.537 14.1565 161.998 14.2671 162.495 14.2671ZM168.892 6.02581C168.698 6.02581 168.532 5.95668 168.394 5.8184C168.256 5.68012 168.187 5.50958 168.187 5.30678C168.187 5.10397 168.256 4.93804 168.394 4.80898C168.532 4.6707 168.698 4.60156 168.892 4.60156C169.086 4.60156 169.247 4.6707 169.376 4.80898C169.514 4.93804 169.583 5.10397 169.583 5.30678C169.583 5.50958 169.514 5.68012 169.376 5.8184C169.247 5.95668 169.086 6.02581 168.892 6.02581ZM169.362 16.7837C169.362 17.3922 169.21 17.8393 168.906 18.125C168.602 18.42 168.145 18.5675 167.537 18.5675H166.859V17.7378H167.385C167.744 17.7378 168.002 17.6595 168.159 17.5028C168.316 17.3553 168.394 17.1018 168.394 16.7423V7.45006H169.362V16.7837ZM178.687 10.8378C178.687 11.1697 178.678 11.4232 178.66 11.5984H172.396C172.423 12.1699 172.562 12.6585 172.81 13.0641C173.059 13.4697 173.387 13.7785 173.792 13.9905C174.198 14.1934 174.64 14.2948 175.12 14.2948C175.747 14.2948 176.272 14.1427 176.696 13.8384C177.129 13.5342 177.415 13.124 177.553 12.6078H178.577C178.392 13.3453 177.996 13.9491 177.387 14.4192C176.788 14.8801 176.032 15.1106 175.12 15.1106C174.41 15.1106 173.774 14.9539 173.211 14.6405C172.649 14.3178 172.207 13.8661 171.884 13.2853C171.571 12.6954 171.414 12.0086 171.414 11.225C171.414 10.4414 171.571 9.75467 171.884 9.16469C172.197 8.57471 172.635 8.12301 173.198 7.80958C173.76 7.49616 174.401 7.33944 175.12 7.33944C175.839 7.33944 176.466 7.49616 177 7.80958C177.544 8.12301 177.959 8.54706 178.245 9.08173C178.54 9.60718 178.687 10.1926 178.687 10.8378ZM177.705 10.8102C177.715 10.2479 177.599 9.7685 177.36 9.37211C177.129 8.97572 176.811 8.67612 176.406 8.47331C176 8.27051 175.558 8.1691 175.078 8.1691C174.359 8.1691 173.746 8.39956 173.239 8.86049C172.732 9.32141 172.451 9.97131 172.396 10.8102H177.705Z" fill="#1B3A4B"/>
<path d="M0.155273 8.96424H13.205V7.25534H3.72842L5.74803 4.92503L4.8159 4.14825L0.155273 8.96424Z" fill="#1B3A4B"/>
<path d="M13.0497 11.2946L-8.62517e-05 11.2946L-8.61023e-05 13.0035L9.47653 13.0035L7.45692 15.3338L8.38905 16.1106L13.0497 11.2946Z" fill="#1B3A4B"/>
</svg>
