<svg width="321" height="321" viewBox="0 0 321 321" fill="none" xmlns="http://www.w3.org/2000/svg">
<path d="M189.515 231.208C196.715 229.808 203.115 229.008 209.315 227.308C227.015 222.508 243.315 214.608 251.715 197.408C264.015 172.508 267.915 146.308 253.815 120.708C249.215 112.408 246.015 105.708 248.615 95.908C250.915 87.408 248.115 78.408 245.315 69.908C244.315 66.708 242.315 65.308 239.415 66.108C231.515 68.408 222.715 69.708 216.015 74.008C205.215 80.908 195.015 82.308 182.515 79.608C163.315 75.408 143.715 77.208 124.515 81.708C122.015 82.308 118.815 81.408 116.215 80.408C106.115 76.108 96.2155 71.408 86.2155 67.008C84.6155 66.308 82.6155 66.408 80.8155 66.108C77.3155 65.608 75.4155 66.908 74.3155 70.508C70.6155 82.408 69.4155 94.308 73.3155 106.408C73.7155 107.708 73.5155 109.808 72.7155 110.808C54.1155 133.208 55.4155 158.408 62.7155 184.208C69.6155 208.608 87.4155 221.208 110.815 227.308C117.015 228.908 123.415 229.808 128.715 230.808C126.115 237.408 123.715 244.008 120.915 250.408C120.315 251.808 118.515 253.208 117.015 253.708C98.6155 259.508 85.0155 256.908 74.7155 239.908C69.4155 231.108 62.0155 224.808 51.7155 223.008C48.9155 222.508 45.8155 223.908 42.8155 224.508C44.5155 227.008 45.7155 230.308 48.0155 231.708C55.9155 236.608 61.4155 243.608 64.4155 251.908C70.5155 269.208 83.4155 275.408 100.315 275.908C106.715 276.108 113.215 275.908 120.215 275.908C120.215 287.408 120.316 299.708 120.116 312.008C120.016 316.408 117.115 319.708 113.015 319.708C90.9155 319.608 68.4155 321.308 46.7155 318.108C19.3155 314.108 0.21547 288.808 0.11547 261.008C-0.0845299 193.708 0.0154701 126.308 0.11547 59.008C0.11547 56.208 0.415488 53.308 0.915488 50.608C5.11549 22.408 29.7155 0.608 58.3155 0.208C88.6155 -0.192 119.015 0.108 149.315 0.108C185.615 0.108 222.015 0.108 258.315 0.108C294.215 0.208 320.115 26.008 320.215 61.908C320.315 127.408 320.315 192.908 320.215 258.408C320.215 294.308 294.315 320.108 258.315 320.208C243.015 320.208 227.615 320.308 212.315 320.208C202.215 320.108 200.015 317.808 200.015 307.708C200.015 291.908 200.115 276.008 199.915 260.208C199.815 249.708 197.815 239.708 189.515 231.208Z" fill="black"/>
<path d="M78.8153 249.208C80.3153 251.008 81.6153 252.108 82.4153 253.608C82.6153 253.908 81.2153 255.108 80.6153 256.008C79.2153 254.808 77.8153 253.608 76.6153 252.308C76.5153 252.008 77.8153 250.608 78.8153 249.208Z" fill="black"/>
<path d="M95.6155 259.508C93.4155 260.908 92.2155 262.208 91.5155 262.008C90.0155 261.508 88.7155 260.208 87.4155 259.308C88.2155 258.608 89.0155 257.208 89.7155 257.308C91.3155 257.408 92.7155 258.308 95.6155 259.508Z" fill="black"/>
<path d="M103.616 264.608C102.316 263.408 101.316 262.508 100.416 261.708C101.416 260.908 102.516 259.408 103.516 259.508C104.716 259.608 105.916 260.908 107.116 261.708C106.016 262.508 105.016 263.408 103.616 264.608Z" fill="black"/>
<path d="M119.415 260.408C118.115 261.108 116.915 262.208 115.515 262.308C114.715 262.408 113.715 261.108 112.715 260.408C113.715 259.508 114.515 258.008 115.615 257.808C116.715 257.608 118.015 258.608 119.215 259.008C119.415 259.408 119.415 259.908 119.415 260.408Z" fill="black"/>
</svg>
