<svg width="320" height="320" viewBox="0 0 320 320" fill="none" xmlns="http://www.w3.org/2000/svg">
<rect x="20" y="46" width="277" height="247" fill="white"/>
<path d="M0.0249817 159.689C0.0249817 121.489 -0.0749817 83.3894 0.125018 45.1894C0.225018 28.0894 7.02501 14.0894 22.425 6.08944C29.025 2.68944 36.925 0.389443 44.325 0.289443C121.225 -0.110557 198.025 -0.0105573 274.925 0.0894427C300.225 0.0894427 319.325 19.1894 319.425 44.3894C319.525 121.189 319.525 198.089 319.425 274.889C319.425 300.089 300.225 319.189 275.025 319.189C198.325 319.289 121.625 319.289 44.925 319.189C19.125 319.189 0.224994 299.989 0.224994 274.089C-0.0750061 235.989 0.0249817 197.789 0.0249817 159.689ZM170.825 139.489C170.825 137.789 170.825 136.789 170.825 135.789C170.725 127.189 169.125 125.389 160.825 125.189C152.125 124.989 143.525 125.089 134.825 125.289C129.525 125.389 127.325 127.689 127.325 133.089C127.325 172.889 127.325 212.789 127.325 252.589C127.325 257.889 129.625 260.189 135.025 260.189C143.325 260.289 151.725 260.189 160.025 260.189C168.925 260.189 170.825 258.289 170.825 249.389C170.825 229.889 170.525 210.389 171.025 190.889C171.225 184.789 172.725 178.289 175.025 172.589C178.925 163.289 186.225 159.989 197.025 160.989C205.125 161.689 211.425 166.789 213.125 176.289C214.625 184.389 214.825 192.789 214.925 201.089C215.225 218.289 215.025 235.389 215.125 252.589C215.125 257.889 217.525 260.089 222.825 260.189C231.625 260.289 240.525 260.189 249.325 260.189C257.725 260.189 259.725 258.289 259.725 249.989C259.725 228.789 259.925 207.689 259.525 186.489C259.325 177.689 258.425 168.789 256.725 160.289C253.525 144.689 245.825 131.389 229.725 126.489C208.425 119.889 187.925 120.789 170.825 139.489ZM109.525 192.689C109.525 184.189 109.525 175.689 109.525 167.189C109.525 156.389 109.625 145.489 109.425 134.689C109.325 128.289 107.125 125.289 101.625 125.089C92.125 124.689 82.625 124.889 73.125 125.089C68.625 125.189 66.2251 127.989 65.7251 132.389C65.5251 134.389 65.525 136.389 65.525 138.389C65.525 174.589 65.525 210.689 65.525 246.889C65.525 248.689 65.5251 250.589 65.7251 252.389C66.3251 257.889 68.625 260.089 74.125 260.189C82.125 260.289 90.125 260.189 98.125 260.189C107.425 260.189 109.425 258.289 109.525 248.689C109.625 229.989 109.525 211.289 109.525 192.689ZM87.825 114.889C103.025 114.789 115.925 101.689 115.725 86.6894C115.425 71.2894 102.925 59.1894 87.325 59.2894C72.225 59.3894 59.7251 71.8894 59.7251 86.9894C59.6251 102.089 72.525 114.989 87.825 114.889Z" fill="#0077B5"/>
</svg>
