<svg width="321" height="321" viewBox="0 0 321 321" fill="none" xmlns="http://www.w3.org/2000/svg">
<path d="M248.074 0C277.174 1.5 301.074 15.7 313.874 45.1C326.374 73.8 322.074 101.5 300.774 124.5C277.374 149.8 252.774 174 227.774 197.8C199.574 224.5 154.674 223.7 126.574 197C117.374 188.2 116.274 175.5 124.074 166.6C131.774 157.9 145.474 156.8 154.574 165.3C167.474 177.5 188.574 178 202.774 163.1C223.774 141.2 245.574 120.1 267.074 98.7C275.674 90.2 279.374 80 276.674 68.2C271.074 43.5 241.774 34.5 223.374 52C210.574 64.2 198.174 76.7 185.874 89.4C181.974 93.4 178.574 93.9 173.074 92.4C163.374 89.8 153.174 88.8 143.274 86.8C140.674 86.3 137.174 85.1 136.074 83.1C135.274 81.6 137.074 77.8 138.774 76C156.574 57.9 174.474 40.1 192.474 22.2C207.074 7.90001 224.774 0.5 248.074 0Z" fill="black"/>
<path d="M143.574 103C162.474 103.2 179.874 110.1 194.474 124C203.174 132.3 204.074 145.1 196.474 153.7C189.074 162.2 175.674 163.4 166.774 155.8C158.674 148.8 149.874 144.7 138.974 146C131.774 146.9 125.474 149.7 120.374 154.8C97.5736 177.5 74.6737 200.1 52.1737 223.1C39.5737 235.9 39.8736 255.8 52.0736 268.1C64.4736 280.6 84.4737 280.7 97.4737 268C110.274 255.6 122.774 242.9 135.274 230.1C138.674 226.6 141.674 226.3 146.374 227.4C156.474 229.9 166.874 231.2 177.074 233.3C179.674 233.8 183.174 235 184.274 237C185.074 238.5 183.374 242.4 181.674 244.1C163.874 262.2 146.174 280.2 127.974 297.9C106.674 318.6 81.2737 325.4 52.9737 316.7C25.4737 308.3 8.17366 289.1 1.97366 260.9C-3.32634 236.9 1.97365 214.6 18.7736 196.7C43.0736 170.8 68.4737 145.9 93.9737 121.3C107.274 108.6 124.174 103.3 143.574 103Z" fill="black"/>
</svg>
