<svg width="301" height="321" viewBox="0 0 301 321" fill="none" xmlns="http://www.w3.org/2000/svg">
<path d="M198.586 230.38C222.986 200.78 257.786 203.98 277.186 218.38C299.686 235.08 306.786 265.08 293.886 289.88C281.286 314.18 252.586 325.68 226.586 317.38C202.986 309.88 180.386 282.68 190.186 247.28C160.986 232.38 131.686 217.38 102.086 202.18C90.2859 217.48 74.8859 225.78 55.5859 225.68C40.4859 225.58 27.2859 219.88 16.4859 209.18C-4.91414 187.88 -5.51414 153.88 14.8859 131.38C32.9859 111.28 70.1859 102.98 98.7859 132.28C129.486 113.78 160.286 95.2804 191.386 76.5804C185.286 58.5804 186.586 41.3804 196.986 25.3804C204.386 14.0804 214.686 6.4804 227.586 2.4804C253.386 -5.5196 281.486 6.3804 293.886 30.2804C306.486 54.4804 299.786 84.1804 278.286 100.88C259.086 115.78 225.986 119.38 201.286 92.9804C200.186 93.4804 198.986 94.0804 197.886 94.6804C169.486 111.78 141.086 128.88 112.586 145.88C109.486 147.78 108.686 149.28 109.886 152.98C113.486 163.48 113.386 174.28 110.086 185.18C139.786 200.28 169.086 215.28 198.586 230.38Z" fill="black"/>
</svg>
