<svg width="299" height="300" viewBox="0 0 299 300" fill="none" xmlns="http://www.w3.org/2000/svg">
<path d="M0 299.701C6.7 275.301 13.1 251.701 19.7 228.101C20.7 224.701 20.4 221.901 18.7 218.701C-29.1 129.001 25.1 19.101 125.3 2.10098C207.9 -11.899 285.9 45.601 297.1 128.901C308.3 211.401 249.5 287.001 167 296.501C137.4 299.901 109.3 294.701 82.6 281.601C80.2 280.401 76.8 280.201 74.2 280.801C51 286.701 27.8 292.901 4.6 299.001C3.4 299.301 2.1 299.401 0 299.701ZM35.8 264.401C37.7 264.001 38.9 263.901 40.2 263.501C52 260.401 63.8 257.601 75.4 254.201C80.2 252.801 84 253.301 88.4 255.901C113.7 270.501 141 275.701 169.8 270.701C237.7 258.801 281.3 198.401 272 130.101C262.9 63.601 197.2 15.401 131 26.601C42.3 41.601 -1.6 138.801 45.8 215.201C47.5 217.901 48.1 220.301 47.1 223.501C43.2 236.901 39.6 250.401 35.8 264.401Z" fill="black"/>
<path d="M188.3 220.401C171.9 219.101 156.9 213.101 142.8 205.101C116.2 189.901 96.6002 167.701 81.5002 141.401C75.8002 131.501 73.2001 120.801 74.7001 109.201C76.1001 98.8009 81.0002 90.3009 88.8002 83.5009C94.4002 78.5009 101.4 79.9009 107.9 81.0009C109.5 81.3009 111.2 83.7009 112.1 85.6009C116.4 95.3009 120.6 105.101 124.4 115.101C125.2 117.201 124.5 120.501 123.4 122.501C121.1 126.501 118.1 130.201 115.1 133.701C112.7 136.501 112.5 139.101 114.4 142.301C126.5 162.401 143.3 177.001 165.1 185.701C168.2 186.901 170.6 186.401 172.7 183.901C176.3 179.501 180 175.201 183.3 170.701C185.8 167.301 188.6 166.301 192.3 168.001C202.2 172.701 212.2 177.401 222 182.301C223.4 183.001 225 184.901 225.1 186.301C225.5 195.001 224.2 203.401 217.2 209.501C208.9 216.601 199.5 220.701 188.3 220.401Z" fill="black"/>
</svg>
